<svg width="18" height="18" viewBox="0 0 18 18" fill="none" xmlns="http://www.w3.org/2000/svg">
<path d="M5.755 4.24788V3.83531C5.75498 3.36197 5.93818 2.90772 6.26487 2.57111C6.59156 2.23451 7.03537 2.04272 7.5 2.03735H10.5C10.7318 2.03735 10.9613 2.08386 11.1754 2.17421C11.3896 2.26457 11.5842 2.39701 11.748 2.56396C11.9119 2.73092 12.042 2.92913 12.1307 3.14726C12.2194 3.3654 12.265 3.5992 12.265 3.83531V4.24788H14.265V3.83531C14.2637 2.81854 13.8666 1.8438 13.1608 1.12483C12.455 0.405857 11.4981 0.00134762 10.5 0H7.5C6.50534 0.00671837 5.55359 0.413597 4.85212 1.13199C4.15065 1.85038 3.7563 2.82205 3.755 3.83531V4.24788H5.755Z" fill="#9FA0A0"/>
<path d="M16.035 4.24805H1.965C1.44385 4.24805 0.944044 4.45894 0.575535 4.83433C0.207026 5.20972 0 5.71886 0 6.24974L0 16.0036C-8.38874e-07 16.2662 0.0508613 16.5262 0.149673 16.7688C0.248485 17.0114 0.393305 17.2317 0.575837 17.4172C0.75837 17.6027 0.975029 17.7496 1.2134 17.8497C1.45178 17.9497 1.70719 18.0008 1.965 18.0002H16.035C16.2928 18.0008 16.5482 17.9497 16.7866 17.8497C17.025 17.7496 17.2416 17.6027 17.4242 17.4172C17.6067 17.2317 17.7515 17.0114 17.8503 16.7688C17.9491 16.5262 18 16.2662 18 16.0036V6.24974C18 5.71886 17.793 5.20972 17.4245 4.83433C17.056 4.45894 16.5562 4.24805 16.035 4.24805ZM7 12.9068C7 13.177 6.89464 13.4361 6.70711 13.6271C6.51957 13.8181 6.26522 13.9255 6 13.9255C5.73478 13.9255 5.48043 13.8181 5.29289 13.6271C5.10536 13.4361 5 13.177 5 12.9068V9.85076C5 9.58059 5.10536 9.32149 5.29289 9.13045C5.48043 8.93941 5.73478 8.83209 6 8.83209C6.26522 8.83209 6.51957 8.93941 6.70711 9.13045C6.89464 9.32149 7 9.58059 7 9.85076V12.9068ZM13 12.9068C13 13.177 12.8946 13.4361 12.7071 13.6271C12.5196 13.8181 12.2652 13.9255 12 13.9255C11.7348 13.9255 11.4804 13.8181 11.2929 13.6271C11.1054 13.4361 11 13.177 11 12.9068V9.85076C11 9.58059 11.1054 9.32149 11.2929 9.13045C11.4804 8.93941 11.7348 8.83209 12 8.83209C12.2652 8.83209 12.5196 8.93941 12.7071 9.13045C12.8946 9.32149 13 9.58059 13 9.85076V12.9068Z" fill="white"/>
</svg>
