<svg width="22" height="16" viewBox="0 0 22 16" fill="none" xmlns="http://www.w3.org/2000/svg">
<g clip-path="url(#clip0_1089_5861)">
<path d="M16.6486 7.99985C18.6189 7.99985 20.2162 6.34675 20.2162 4.30754C20.2162 2.26834 18.6189 0.615234 16.6486 0.615234C14.6783 0.615234 13.0811 2.26834 13.0811 4.30754C13.0811 6.34675 14.6783 7.99985 16.6486 7.99985Z" fill="#9FA0A0"/>
<path d="M17.2433 6.15384C16.5839 6.1545 15.9319 6.297 15.3287 6.57231C15.0663 5.07526 14.3969 3.68668 13.399 2.56945C12.4011 1.45223 11.116 0.652681 9.6946 0.264608C8.27315 -0.123466 6.77425 -0.0839759 5.37372 0.378445C3.97319 0.840867 2.72912 1.70704 1.78742 2.87537C0.845722 4.0437 0.24546 5.46573 0.0570426 6.97465C-0.131375 8.48358 0.0998674 10.0168 0.723644 11.3945C1.34742 12.7722 2.33786 13.9373 3.57879 14.753C4.81972 15.5688 6.25967 16.0013 7.72974 16H17.2433C18.5048 16 19.7147 15.4813 20.6068 14.5581C21.4989 13.6348 22 12.3826 22 11.0769C22 9.77124 21.4989 8.51904 20.6068 7.59578C19.7147 6.67252 18.5048 6.15384 17.2433 6.15384ZM7.72974 12.1354C7.72897 12.3244 7.68614 12.5107 7.60459 12.6798C7.52303 12.8489 7.40494 12.9963 7.25946 13.1106C7.11398 13.2248 6.94503 13.3029 6.76571 13.3387C6.58639 13.3745 6.40152 13.367 6.22542 13.3169C5.0956 12.9728 4.10704 12.2525 3.41299 11.2677C3.31201 11.1116 3.2469 10.9337 3.22263 10.7475C3.19836 10.5614 3.21559 10.3719 3.27298 10.1937C3.33037 10.0155 3.42641 9.85331 3.55374 9.71946C3.68107 9.58561 3.83632 9.4837 4.00758 9.42154C4.24611 9.33541 4.50493 9.33014 4.74654 9.40649C4.98815 9.48284 5.2 9.63683 5.35137 9.84615C5.72476 10.3556 6.24226 10.732 6.83191 10.9231C7.08862 10.9902 7.31635 11.1441 7.47898 11.3604C7.64162 11.5766 7.72987 11.8429 7.72974 12.1169V12.1354ZM10.1081 13.5385C9.87292 13.5385 9.64301 13.4663 9.44744 13.331C9.25188 13.1958 9.09946 13.0036 9.00946 12.7787C8.91945 12.5538 8.8959 12.3063 8.94178 12.0676C8.98767 11.8288 9.10093 11.6095 9.26724 11.4374C9.43355 11.2653 9.64544 11.1481 9.87612 11.1006C10.1068 11.0531 10.3459 11.0775 10.5632 11.1706C10.7805 11.2638 10.9662 11.4215 11.0969 11.6239C11.2276 11.8263 11.2973 12.0643 11.2973 12.3077C11.2973 12.6341 11.172 12.9472 10.949 13.178C10.726 13.4088 10.4235 13.5385 10.1081 13.5385Z" fill="white"/>
</g>
<defs>
<clipPath id="clip0_1089_5861">
<rect width="22" height="16" fill="white"/>
</clipPath>
</defs>
</svg>
