<svg width="24" height="16" viewBox="0 0 24 16" fill="none" xmlns="http://www.w3.org/2000/svg">
<g clip-path="url(#clip0_1089_5853)">
<path d="M5.33333 9.33333C4.97971 9.33333 4.64057 9.19286 4.39052 8.94281C4.14048 8.69276 4 8.35362 4 8C4 7.64638 4.14048 7.30724 4.39052 7.05719C4.64057 6.80714 4.97971 6.66667 5.33333 6.66667H8V2.66667C8 1.95942 7.71905 1.28115 7.21895 0.781049C6.71885 0.280952 6.04058 0 5.33333 0L2.66667 0C1.95942 0 1.28115 0.280952 0.781049 0.781049C0.280952 1.28115 0 1.95942 0 2.66667L0 13.3333C0 14.0406 0.280952 14.7189 0.781049 15.219C1.28115 15.719 1.95942 16 2.66667 16H5.33333C6.04058 16 6.71885 15.719 7.21895 15.219C7.71905 14.7189 8 14.0406 8 13.3333V9.33333H5.33333Z" fill="white"/>
<path d="M16 4.10802e-06C14.1108 0.00191856 12.2833 0.672332 10.841 1.89252C9.39877 3.1127 8.43486 4.80392 8.12 6.66667H10.6667C11.0203 6.66667 11.3594 6.80715 11.6095 7.0572C11.8595 7.30724 12 7.64638 12 8C12 8.35363 11.8595 8.69276 11.6095 8.94281C11.3594 9.19286 11.0203 9.33334 10.6667 9.33334H8.12C8.37426 10.8376 9.05334 12.2378 10.0772 13.3688C11.101 14.4998 12.4269 15.3145 13.8985 15.7168C15.3701 16.1191 16.926 16.0923 18.3828 15.6394C19.8397 15.1865 21.1366 14.3266 22.1208 13.1609C23.105 11.9952 23.7353 10.5724 23.9375 9.06026C24.1397 7.54812 23.9053 6.0097 23.262 4.62639C22.6186 3.24308 21.5932 2.07256 20.3065 1.25286C19.0198 0.433164 17.5256 -0.00154164 16 4.10802e-06Z" fill="white"/>
</g>
<defs>
<clipPath id="clip0_1089_5853">
<rect width="24" height="16" fill="white"/>
</clipPath>
</defs>
</svg>
