<?xml version="1.0" encoding="UTF-8"?>
<svg id="_레이어_1" data-name="레이어_1" xmlns="http://www.w3.org/2000/svg" version="1.1" viewBox="0 0 369 97">
  <!-- Generator: Adobe Illustrator 29.5.1, SVG Export Plug-In . SVG Version: 2.1.0 Build 141)  -->
  <defs>
    <style>
      .st0 {
        fill: #416ff4;
      }
    </style>
  </defs>
  <path class="st0" d="M304.5,63.6c0,17.7,14.4,32,32.2,32s32.2-14.3,32.2-32-14.4-32-32.2-32-32.2,14.3-32.2,32ZM336.8,68.9c-3,0-5.4-2.4-5.4-5.3s2.4-5.3,5.4-5.3,5.4,2.4,5.4,5.3-2.4,5.3-5.4,5.3Z"/>
  <path class="st0" d="M299.2,31.6h-26.9v64h26.9V31.6Z"/>
  <path class="st0" d="M299.2,12.9c0-7.4-6-13.3-13.4-13.3s-13.4,6-13.4,13.3,6,13.3,13.4,13.3,13.4-6,13.4-13.3Z"/>
  <path class="st0" d="M266.9,82.3c0-7.4-6-13.3-13.4-13.3s-13.4,6-13.4,13.3,6,13.3,13.4,13.3,13.4-6,13.4-13.3Z"/>
  <path class="st0" d="M80.6,31.6V-.4h-26.9v61.3c0,19.1,15.6,34.7,34.9,34.7h13.4v-26.7h-10.7c-5.9,0-10.7-4.8-10.7-10.7h21.5v-26.7h-21.5Z"/>
  <path class="st0" d="M8.1,68.9H0v26.7h16.1c11.9,0,21.5-9.6,21.5-21.3v-13.3c0-1.5,1.2-2.7,2.7-2.7h8.1v-26.7h-16.1c-11.9,0-21.5,9.6-21.5,21.3v13.3c0,1.5-1.2,2.7-2.7,2.7Z"/>
  <path class="st0" d="M138,31.6v29.3h-3.8v-29.3h-26.9v35.5c0,15.8,12.9,28.5,28.7,28.5s28.7-12.8,28.7-28.5V31.6h-26.9Z"/>
  <path class="st0" d="M207.9,32.1v31.5c0,2.9-2.4,5.3-5.4,5.3s-5.4-2.4-5.4-5.3,2.4-5.3,5.4-5.3,1.1,0,1.6.2v-26.9c-.5,0-1.1,0-1.6,0-17.8,0-32.2,14.3-32.2,32s14.4,32,32.2,32,32.2-14.3,32.2-32V-.4h-26.9v32.5Z"/>
</svg>