<svg width="369" height="97" viewBox="0 0 369 97" fill="none" xmlns="http://www.w3.org/2000/svg">
<path d="M304.546 64.6101C304.546 82.2848 318.973 96.6101 336.773 96.6101C354.573 96.6101 369 82.2848 369 64.6101C369 46.9354 354.573 32.6101 336.773 32.6101C318.973 32.6101 304.546 46.9354 304.546 64.6101ZM336.773 69.9434C333.808 69.9434 331.402 67.5541 331.402 64.6101C331.402 61.6661 333.808 59.2768 336.773 59.2768C339.738 59.2768 342.144 61.6661 342.144 64.6101C342.144 67.5541 339.738 69.9434 336.773 69.9434Z" fill="white"/>
<path d="M299.175 32.6101H272.319V96.6101H299.175V32.6101Z" fill="white"/>
<path d="M299.175 13.9434C299.175 6.57964 293.163 0.610107 285.747 0.610107C278.331 0.610107 272.319 6.57964 272.319 13.9434C272.319 21.3072 278.331 27.2768 285.747 27.2768C293.163 27.2768 299.175 21.3072 299.175 13.9434Z" fill="white"/>
<path d="M266.948 83.2767C266.948 75.9129 260.936 69.9434 253.52 69.9434C246.104 69.9434 240.092 75.9129 240.092 83.2767C240.092 90.6405 246.104 96.61 253.52 96.61C260.936 96.61 266.948 90.6405 266.948 83.2767Z" fill="white"/>
<path d="M80.5677 32.6101V0.610107H53.7118V61.9434C53.7118 81.0901 69.3419 96.6101 88.6245 96.6101H102.052V69.9434H91.31C85.3749 69.9434 80.5677 65.1701 80.5677 59.2768H102.052V32.6101H80.5677Z" fill="white"/>
<path d="M8.05677 69.9434H0V96.6101H16.1135C27.9785 96.6101 37.5983 87.0581 37.5983 75.2768V61.9434C37.5983 60.4714 38.8014 59.2768 40.2838 59.2768H48.3406V32.6101H32.2271C20.3621 32.6101 10.7424 42.1621 10.7424 53.9434V67.2768C10.7424 68.7488 9.53921 69.9434 8.05677 69.9434Z" fill="white"/>
<path d="M138.039 32.6101V61.9434H134.279V32.6101H107.424V68.0768C107.424 83.8368 120.288 96.6101 136.159 96.6101C152.031 96.6101 164.895 83.8368 164.895 68.0768V32.6101H138.039Z" fill="white"/>
<path d="M207.865 33.0634V64.6101C207.865 67.5541 205.458 69.9434 202.493 69.9434C199.529 69.9434 197.122 67.5541 197.122 64.6101C197.122 61.6661 199.529 59.2768 202.493 59.2768C203.057 59.2768 203.595 59.3621 204.105 59.5221V32.6581C203.573 32.6314 203.036 32.6154 202.493 32.6154C184.693 32.6154 170.266 46.9408 170.266 64.6154C170.266 82.2901 184.693 96.6154 202.493 96.6154C220.294 96.6154 234.72 82.2901 234.72 64.6154V0.610107H207.865V33.0634Z" fill="white"/>
</svg>
