<svg width="1920" height="795" viewBox="0 0 1920 795" fill="none" xmlns="http://www.w3.org/2000/svg">
<path d="M930.058 701.597C930.058 701.597 1553.74 642.466 2046.39 362.788" stroke="#B9DBA3" stroke-width="3" stroke-miterlimit="10"/>
<path d="M713.129 791.623V727.755" stroke="#B9DBA3" stroke-width="3" stroke-miterlimit="10"/>
<path d="M727.35 773.153L698.905 746.223" stroke="#B9DBA3" stroke-width="3" stroke-miterlimit="10"/>
<path d="M727.35 746.223L698.905 773.153" stroke="#B9DBA3" stroke-width="3" stroke-miterlimit="10"/>
<path d="M740.257 759.688H686" stroke="#B9DBA3" stroke-width="3" stroke-miterlimit="10"/>
<path d="M1084.87 117.96V0.546768" stroke="#B9DBA3" stroke-width="3" stroke-miterlimit="10"/>
<path d="M1111.02 84.0057L1058.72 34.4981" stroke="#B9DBA3" stroke-width="3" stroke-miterlimit="10"/>
<path d="M1111.02 34.4981L1058.72 84.0057" stroke="#B9DBA3" stroke-width="3" stroke-miterlimit="10"/>
<path d="M1134.74 59.252H1035" stroke="#B9DBA3" stroke-width="3" stroke-miterlimit="10"/>
<path d="M837.593 757.092L836.933 654.166" stroke="#B9DBA3" stroke-width="3" stroke-miterlimit="10"/>
<path d="M860.321 727.209L814.202 684.046" stroke="#B9DBA3" stroke-width="3" stroke-miterlimit="10"/>
<path d="M860.028 683.796L814.496 727.46" stroke="#B9DBA3" stroke-width="3" stroke-miterlimit="10"/>
<path d="M880.981 705.376L793.544 705.88" stroke="#B9DBA3" stroke-width="3" stroke-miterlimit="10"/>
<path d="M330.926 64.2448V132.695" stroke="#B9DBA3" stroke-width="3" stroke-miterlimit="10"/>
<path d="M346.168 84.0393L315.684 112.901" stroke="#B9DBA3" stroke-width="3" stroke-miterlimit="10"/>
<path d="M346.168 112.901L315.684 84.0393" stroke="#B9DBA3" stroke-width="3" stroke-miterlimit="10"/>
<path d="M360 98.47H301.852" stroke="#B9DBA3" stroke-width="3" stroke-miterlimit="10"/>
<path d="M1797.93 226.579V297.384" stroke="#B9DBA3" stroke-width="2.5" stroke-miterlimit="10"/>
<path d="M1813.69 247.054L1782.16 276.909" stroke="#B9DBA3" stroke-width="2.5" stroke-miterlimit="10"/>
<path d="M1813.69 276.909L1782.16 247.054" stroke="#B9DBA3" stroke-width="2.5" stroke-miterlimit="10"/>
<path d="M1828 261.982H1767.85" stroke="#B9DBA3" stroke-width="2.5" stroke-miterlimit="10"/>
<path d="M105.074 660.312V794.684" stroke="#B9DBA3" stroke-width="2.5" stroke-miterlimit="10"/>
<path d="M134.996 699.17L75.1553 755.826" stroke="#B9DBA3" stroke-width="2.5" stroke-miterlimit="10"/>
<path d="M134.996 755.826L75.1553 699.17" stroke="#B9DBA3" stroke-width="2.5" stroke-miterlimit="10"/>
<path d="M162.148 727.498H48.0001" stroke="#B9DBA3" stroke-width="2.5" stroke-miterlimit="10"/>
<path d="M283 99.3942C283 99.3942 -64.1499 94.3264 -354 218.783" stroke="#B9DBA3" stroke-width="3" stroke-miterlimit="10"/>
</svg>
