<svg width="1788" height="710" viewBox="0 0 1788 710" fill="none" xmlns="http://www.w3.org/2000/svg">
<path d="M302.442 80.7526V159.271" stroke="#DD8B8F" stroke-width="2" stroke-miterlimit="10"/>
<path d="M285.867 103.457L319.021 136.562" stroke="#DD8B8F" stroke-width="2" stroke-miterlimit="10"/>
<path d="M285.867 136.562L319.021 103.457" stroke="#DD8B8F" stroke-width="2" stroke-miterlimit="10"/>
<path d="M270.824 120.01H334.06" stroke="#DD8B8F" stroke-width="2" stroke-miterlimit="10"/>
<path d="M-65 238.876C-65 238.876 -3.90199 136.722 241.527 120.38" stroke="#DD8B8F" stroke-width="2" stroke-miterlimit="10"/>
<path d="M169.443 661.319V709.6" stroke="#DD8B8F" stroke-width="2" stroke-miterlimit="10"/>
<path d="M159.251 675.28L179.635 695.637" stroke="#DD8B8F" stroke-width="2" stroke-miterlimit="10"/>
<path d="M159.251 695.637L179.635 675.28" stroke="#DD8B8F" stroke-width="2" stroke-miterlimit="10"/>
<path d="M150 685.458H188.885" stroke="#DD8B8F" stroke-width="2" stroke-miterlimit="10"/>
<path d="M259.917 581.765V464" stroke="#DD8B8F" stroke-width="3" stroke-miterlimit="10"/>
<path d="M284.777 547.709L235.053 498.053" stroke="#DD8B8F" stroke-width="3" stroke-miterlimit="10"/>
<path d="M284.777 498.053L235.053 547.709" stroke="#DD8B8F" stroke-width="3" stroke-miterlimit="10"/>
<path d="M307.339 522.881H212.494" stroke="#DD8B8F" stroke-width="3" stroke-miterlimit="10"/>
<path d="M1728.04 542V688.61" stroke="#DD8B8F" stroke-width="4" stroke-miterlimit="10"/>
<path d="M1697.09 584.392L1758.99 646.214" stroke="#DD8B8F" stroke-width="4" stroke-miterlimit="10"/>
<path d="M1697.09 646.214L1758.99 584.392" stroke="#DD8B8F" stroke-width="4" stroke-miterlimit="10"/>
<path d="M1669 615.303H1787.08" stroke="#DD8B8F" stroke-width="4" stroke-miterlimit="10"/>
<path d="M1643.01 0V115.018" stroke="#DD8B8F" stroke-width="3" stroke-miterlimit="10"/>
<path d="M1618.73 33.2607L1667.29 81.757" stroke="#DD8B8F" stroke-width="3" stroke-miterlimit="10"/>
<path d="M1618.73 81.757L1667.29 33.2607" stroke="#DD8B8F" stroke-width="3" stroke-miterlimit="10"/>
<path d="M1596.69 57.5089H1689.32" stroke="#DD8B8F" stroke-width="3" stroke-miterlimit="10"/>
<path d="M1542.31 151.057V223.845" stroke="#DD8B8F" stroke-width="2.5" stroke-miterlimit="10"/>
<path d="M1526.95 172.103L1557.68 202.795" stroke="#DD8B8F" stroke-width="2.5" stroke-miterlimit="10"/>
<path d="M1526.95 202.795L1557.68 172.103" stroke="#DD8B8F" stroke-width="2.5" stroke-miterlimit="10"/>
<path d="M1513 187.451H1571.62" stroke="#DD8B8F" stroke-width="2.5" stroke-miterlimit="10"/>
</svg>
