<svg width="377" height="156" viewBox="0 0 377 156" fill="none" xmlns="http://www.w3.org/2000/svg">
<path d="M163.304 110.212V110.155C163.304 104.429 167.874 99.734 174.424 99.734C178.446 99.734 180.854 101.001 182.833 102.842L179.847 106.096C178.202 104.683 176.527 103.821 174.394 103.821C170.8 103.821 168.208 106.642 168.208 110.094V110.15C168.208 113.602 170.735 116.479 174.394 116.479C176.831 116.479 178.322 115.556 180.002 114.12L182.987 116.969C180.794 119.187 178.357 120.567 174.245 120.567C167.969 120.567 163.309 115.989 163.309 110.207L163.304 110.212Z" fill="white"/>
<path d="M185.175 110.212V110.155C185.175 104.429 189.955 99.734 196.539 99.734C203.124 99.734 207.844 104.368 207.844 110.094V110.15C207.844 115.876 203.059 120.567 196.479 120.567C189.9 120.567 185.18 115.933 185.18 110.207L185.175 110.212ZM202.934 110.212V110.155C202.934 106.703 200.253 103.821 196.474 103.821C192.696 103.821 190.074 106.642 190.074 110.094V110.15C190.074 113.602 192.756 116.479 196.534 116.479C200.312 116.479 202.934 113.659 202.934 110.207V110.212Z" fill="white"/>
<path d="M212.006 100.078H216.332L226.326 112.481V100.078H230.957V120.223H226.969L216.641 107.414V120.223H212.011V100.078H212.006Z" fill="white"/>
<path d="M236.066 100.078H240.393L250.387 112.481V100.078H255.017V120.223H251.025L240.697 107.414V120.223H236.066V100.078Z" fill="white"/>
<path d="M260.125 100.078H276.21V104.019H264.785V108.107H274.839V112.048H264.785V116.277H276.364V120.218H260.125V100.073V100.078Z" fill="white"/>
<path d="M279.586 110.212V110.155C279.586 104.429 284.157 99.734 290.706 99.734C294.729 99.734 297.131 101.001 299.115 102.842L296.129 106.096C294.484 104.683 292.81 103.821 290.676 103.821C287.083 103.821 284.491 106.642 284.491 110.094V110.15C284.491 113.602 287.018 116.479 290.676 116.479C293.114 116.479 294.604 115.556 296.284 114.12L299.269 116.969C297.076 119.187 294.639 120.567 290.527 120.567C284.251 120.567 279.591 115.989 279.591 110.207L279.586 110.212Z" fill="white"/>
<path d="M307.977 104.165H301.487V100.078H319.157V104.165H312.667V120.223H307.977V104.165Z" fill="white"/>
<path d="M322.959 100.078H327.649V120.223H322.959V100.078Z" fill="white"/>
<path d="M332.979 100.078H337.305L347.299 112.481V100.078H351.929V120.223H347.937L337.609 107.414V120.223H332.979V100.078Z" fill="white"/>
<path d="M356.091 110.212V110.155C356.091 104.429 360.811 99.734 367.271 99.734C371.109 99.734 373.422 100.713 375.65 102.498L372.694 105.865C371.049 104.57 369.589 103.821 367.121 103.821C363.707 103.821 360.996 106.67 360.996 110.094V110.15C360.996 113.833 363.677 116.54 367.455 116.54C369.16 116.54 370.685 116.14 371.872 115.33V112.453H367.151V108.625H376.412V117.374C374.219 119.13 371.204 120.567 367.301 120.567C360.662 120.567 356.091 116.164 356.091 110.207V110.212Z" fill="white"/>
<path d="M170.786 138.696H164.296V134.609H181.966V138.696H175.476V154.759H170.786V138.696Z" fill="white"/>
<path d="M185.554 134.609H190.244V142.581H198.897V134.609H203.587V154.754H198.897V146.669H190.244V154.754H185.554V134.609Z" fill="white"/>
<path d="M208.702 134.609H224.787V138.55H213.363V142.638H222.036V146.579H213.363V150.808H224.937V154.749H208.697V134.604L208.702 134.609Z" fill="white"/>
<path d="M238.398 134.609H254.638V138.64H243.089V142.93H253.262V146.961H243.089V154.759H238.398V134.614V134.609Z" fill="white"/>
<path d="M258.043 146.122V134.609H262.733V146.005C262.733 149.287 264.468 150.982 267.334 150.982C270.2 150.982 271.935 149.343 271.935 146.146V134.604H276.625V145.972C276.625 152.075 272.996 155.065 267.274 155.065C261.552 155.065 258.043 152.042 258.043 146.113V146.122Z" fill="white"/>
<path d="M286.37 138.696H279.88V134.609H297.55V138.696H291.06V154.759H286.37V138.696Z" fill="white"/>
<path d="M300.803 146.122V134.609H305.493V146.005C305.493 149.287 307.228 150.982 310.094 150.982C312.96 150.982 314.694 149.343 314.694 146.146V134.604H319.385V145.972C319.385 152.075 315.756 155.065 310.034 155.065C304.312 155.065 300.803 152.042 300.803 146.113V146.122Z" fill="white"/>
<path d="M324.165 134.609H333.915C336.626 134.609 338.73 135.33 340.13 136.653C341.316 137.773 341.959 139.36 341.959 141.258V141.315C341.959 144.569 340.1 146.612 337.389 147.559L342.597 154.754H337.115L332.544 148.308H328.855V154.754H324.165V134.609ZM333.611 144.394C335.893 144.394 337.204 143.245 337.204 141.545V141.489C337.204 139.591 335.804 138.612 333.516 138.612H328.855V144.399H333.611V144.394Z" fill="white"/>
<path d="M346.188 134.609H362.272V138.55H350.848V142.638H360.902V146.579H350.848V150.808H362.427V154.749H346.188V134.604V134.609Z" fill="white"/>
<path d="M164.995 80.474L171.275 75.6143C173.618 73.7825 174.535 72.8124 174.535 71.3385C174.535 69.8646 173.484 69.0217 172.003 69.0217C170.523 69.0217 169.551 69.7845 168.15 71.4138L165.239 69.2006C167.099 66.8084 168.903 65.5088 172.272 65.5088C176.18 65.5088 178.767 67.6702 178.767 71.0089V71.0607C178.767 74.0368 177.152 75.5154 173.813 77.9594L170.742 80.2008H178.961V83.5866H165.005V80.4834L164.995 80.474Z" fill="white"/>
<path d="M206.016 80.474L212.291 75.6143C214.634 73.7825 215.551 72.8124 215.551 71.3385C215.551 69.8646 214.499 69.0217 213.019 69.0217C211.538 69.0217 210.566 69.7845 209.166 71.4138L206.255 69.2006C208.114 66.8084 209.918 65.5088 213.288 65.5088C217.196 65.5088 219.783 67.6702 219.783 71.0089V71.0607C219.783 74.0368 218.168 75.5154 214.828 77.9594L211.758 80.2008H219.977V83.5866H206.021V80.4834L206.016 80.474Z" fill="white"/>
<path d="M192.522 83.1773C197.334 83.1773 201.235 79.492 201.235 74.9459C201.235 70.3999 197.334 66.7146 192.522 66.7146C187.71 66.7146 183.81 70.3999 183.81 74.9459C183.81 79.492 187.71 83.1773 192.522 83.1773Z" fill="white"/>
<path d="M145.261 79.6969H33.7146C15.1277 79.6969 0 67.5995 0 52.7332C0 37.8669 15.1277 25.7742 33.7146 25.7742H73.3009V36.1528H33.7146C21.1788 36.1528 10.9857 43.593 10.9857 52.7332C10.9857 61.8734 21.1838 69.3136 33.7146 69.3136H145.256V79.6922L145.261 79.6969Z" fill="white"/>
<path d="M148.331 0.581146C132.685 0.581146 119.959 12.6032 119.959 27.3848V119.823C119.959 125.803 115.518 130.813 109.592 132.094V142.609C121.091 141.277 130.113 132.348 130.87 121.311H130.945V119.818V51.8999V27.3848C130.945 18.3294 138.746 10.9598 148.331 10.9598C157.916 10.9598 165.716 18.3294 165.716 27.3848H176.702C176.702 12.6032 163.972 0.581146 148.331 0.581146Z" fill="white"/>
<path d="M92.9046 119.818V51.9H81.9189V119.818C81.9189 131.374 91.0006 140.938 102.769 142.539V131.972C97.0965 130.521 92.9046 125.629 92.9046 119.818Z" fill="white"/>
<path d="M224.552 74.3617L229.507 65.8667H233.953L230.429 71.7812H230.479C231.789 71.7953 232.961 72.0685 233.993 72.5912C235.024 73.1139 235.822 73.8296 236.395 74.7385C236.963 75.6473 237.252 76.6786 237.252 77.8417C237.252 79.0048 236.958 80.0596 236.37 80.9685C235.782 81.8773 234.965 82.5884 233.918 83.1064C232.871 83.6196 231.675 83.8786 230.329 83.8786C228.983 83.8786 227.792 83.6196 226.755 83.1064C225.718 82.5931 224.901 81.8773 224.318 80.9685C223.73 80.0596 223.436 79.019 223.436 77.8417C223.436 76.8104 223.809 75.652 224.562 74.3665L224.552 74.3617ZM231.909 80.3233C232.368 80.0832 232.727 79.7441 232.981 79.3109C233.235 78.8777 233.365 78.3879 233.365 77.837C233.365 77.286 233.235 76.7775 232.981 76.3395C232.727 75.9016 232.368 75.5673 231.909 75.3271C231.45 75.0869 230.922 74.9645 230.324 74.9645C229.726 74.9645 229.227 75.0869 228.764 75.3271C228.305 75.5673 227.946 75.9063 227.692 76.3395C227.438 76.7728 227.308 77.2719 227.308 77.837C227.308 78.4021 227.438 78.873 227.692 79.3109C227.946 79.7441 228.305 80.0832 228.764 80.3233C229.222 80.5635 229.741 80.6859 230.324 80.6859C230.907 80.6859 231.446 80.5635 231.909 80.3233Z" fill="white"/>
</svg>
