<svg width="110" height="29" viewBox="0 0 110 29" fill="none" xmlns="http://www.w3.org/2000/svg">
<g clip-path="url(#clip0_20_37)">
<path d="M62.5721 0C57.5144 0 54.6822 3.53501 53.3284 5.91325C52.6495 3.08201 50.3758 0 45.5832 0C40.7906 0 38.087 2.87573 36.3998 5.71506V0.262901H30.5186V28.9879H36.5283V16.7448C36.5283 11.7497 38.8101 4.71199 43.8879 4.71199C47.2945 4.71199 47.5557 7.24393 47.5557 10.8153V28.9879H53.5815V16.1704C53.5815 12.1824 55.7267 4.71199 60.8808 4.71199C64.3316 4.71199 64.6088 7.38954 64.6088 10.1318V28.9879H70.6427V8.25105C70.6427 3.1629 67.5414 0 62.5681 0H62.5721Z" fill="white"/>
<path d="M96.2573 0.254811H89.0343L75.3516 29.004H82.1608C82.1608 29.004 85.483 21.4244 85.7602 20.8015H98.6234C98.8966 21.4244 102.223 29.004 102.223 29.004H110.004L96.2573 0.254811ZM87.3993 17.04C87.9657 15.7457 91.5049 7.65649 92.236 5.98201C92.9631 7.66053 96.4621 15.7498 97.0246 17.04H87.3993Z" fill="white"/>
<path d="M11.192 13.2866C11.9633 12.5222 24.1717 0.262901 24.1717 0.262901H16.8403C16.8403 0.262901 7.76934 9.7152 6.03389 11.511L6.01782 11.5272V0.133472H0V28.9838H6.02184V15.7741L6.03791 15.7862C7.63677 17.6508 17.4027 28.9757 17.4027 28.9757H25.1479C25.1479 28.9757 11.9232 14.1117 11.192 13.2866Z" fill="white"/>
</g>
<defs>
<clipPath id="clip0_20_37">
<rect width="110" height="29" fill="white"/>
</clipPath>
</defs>
</svg>
